<?xml version="1.0" encoding="UTF-8"?>
<svg width="48px" height="48px" viewBox="0 0 48 48" version="1.1" xmlns="http://www.w3.org/2000/svg" xmlns:xlink="http://www.w3.org/1999/xlink">
    <!-- Generator: Sketch 47.1 (45422) - http://www.bohemiancoding.com/sketch -->
    <title>Group 2</title>
    <desc>Created with Sketch.</desc>
    <defs></defs>
    <g id="Page-1" stroke="none" stroke-width="1" fill="none" fill-rule="evenodd">
        <g id="home" transform="translate(-160.000000, -24.000000)">
            <g id="Group-2" transform="translate(160.000000, 24.000000)">
                <rect id="Rectangle-2" fill="#062F3E" x="0" y="0" width="48" height="48" rx="4"></rect>
                <g id="Group" transform="translate(2.923077, 3.538462)" fill="#FFFFFF">
                    <path d="M12.2757333,33.5098667 L15.2417333,30.5537333 L15.2370667,28.5182667 L12.8865333,26.8725333 L15.2642667,25.58 L15.2608,22.3848 C19.5936,22.0882667 23.0141333,18.6442667 23.0116,14.4321333 C23.0033333,10.06 19.312,6.5184 14.7458667,6.47466667 L14.7505333,11.2698667 C15.6050667,11.2906667 16.4088,11.6125333 17.0145333,12.1908 C17.642,12.7906667 17.9909333,13.5908 17.9921333,14.4409333 C17.9921333,16.1909333 16.5033333,17.6165333 14.6642667,17.6165333 L8.44586667,17.6276 C7.556,17.6276 6.71666667,17.3006667 6.08826667,16.6994667 C5.4588,16.1005333 5.11066667,15.3042667 5.11186667,14.4602667 C5.11186667,13.6104 5.45266667,12.8078667 6.0836,12.2066667 C6.7132,11.6017333 7.55106667,11.2710667 8.43413333,11.2698667 L9.09666667,11.2686667 L9.092,6.4772 L8.4292,6.4784 C3.81946667,6.4832 0.0890666667,10.0553333 0.0948,14.4578667 C0.0982666667,18.574 3.37093333,21.958 7.56293333,22.3738667 L7.58773333,40.7968 L11.8282667,40.792 L16.3353333,36.8221333 L12.2757333,33.5098667 L12.2757333,33.5098667 Z M8.67306667,39.5185333 L8.65173333,23.2128 L9.90746667,23.2104 L9.92733333,39.5172 L8.67306667,39.5185333 L8.67306667,39.5185333 Z M10.1986667,12.0908 C10.1986667,13.0042667 10.9725333,13.7384 11.9290667,13.7396 C12.8830667,13.7372 13.6557333,12.9993333 13.6545333,12.086 L13.6402667,4.13426667 C13.6402667,3.22573333 12.8664,2.48666667 11.9124,2.48666667 C10.9561333,2.48786667 10.1854667,3.22813333 10.1854667,4.13906667 L10.1986667,12.0908 L10.1986667,12.0908 Z" id="Shape"></path>
                    <rect id="Rectangle-path" x="15.9341333" y="0.130933333" width="26.1042667" height="1.23266667"></rect>
                    <polygon id="Shape" points="18.6505333 32.8418667 17.5890667 34.0049333 17.6705333 34.0784 42.0330667 34.0764 42.0330667 32.8418667"></polygon>
                    <path d="M25.8926667,9.75853333 C26.7861333,11.0444 27.3242667,12.6176 27.3488,14.3257333 L41.9953333,14.3278667 L41.9953333,9.75853333 L25.8926667,9.75853333 L25.8926667,9.75853333 Z" id="Shape"></path>
                    <path d="M26.7530667,18.0308 C26.5793333,18.4614667 26.3729333,18.8738667 26.1326667,19.2622667 L42.0357333,19.2622667 L42.0357333,18.0308 L26.7530667,18.0308 L26.7530667,18.0308 Z" id="Shape"></path>
                    <path d="M22.1874667,22.4748 L42.0357333,22.4733333 L42.0332,21.2406667 L24.3901333,21.2392 C23.7326667,21.7714667 22.9901333,22.1897333 22.1874667,22.4748 L22.1874667,22.4748 Z" id="Shape"></path>
                    <polygon id="Shape" points="17.8709333 40.6194667 42.032 40.6222667 42.0302667 39.3838667 19.1470667 39.3838667"></polygon>
                    <polygon id="Shape" points="20.1352 26.0172 18.8302667 26.9581333 20.0337333 28.0801333 20.0702667 30.7450667 42.0330667 30.7464 42.0330667 26.0172"></polygon>
                    <path d="M24.6694667,7.65933333 L42.0370667,7.65933333 L42.0357333,6.42573333 L22.7874667,6.42573333 C23.4738667,6.73933333 24.1062667,7.15746667 24.6694667,7.65933333 L24.6694667,7.65933333 Z" id="Shape"></path>
                    <polygon id="Shape" points="18.8302667 3.4628 18.8324 4.6984 42.0382667 4.6984 42.0382667 3.4628"></polygon>
                </g>
            </g>
        </g>
    </g>
</svg>