<?xml version="1.0" encoding="UTF-8"?>
<svg width="36px" height="36px" viewBox="0 0 36 36" version="1.1" xmlns="http://www.w3.org/2000/svg" xmlns:xlink="http://www.w3.org/1999/xlink">
    <!-- Generator: Sketch 47.1 (45422) - http://www.bohemiancoding.com/sketch -->
    <title>Group 2</title>
    <desc>Created with Sketch.</desc>
    <defs></defs>
    <g id="Page-1" stroke="none" stroke-width="1" fill="none" fill-rule="evenodd">
        <g id="home" transform="translate(-658.000000, -492.000000)" fill-rule="nonzero">
            <g id="Group" transform="translate(640.000000, 480.000000)">
                <g id="Group-2" transform="translate(18.000000, 12.000000)">
                    <path d="M18.0824595,32.0966757 C15.1088108,32.0966757 12.3336486,31.2003243 10.0152973,29.6749459 L4.37837838,31.4759189 L6.20562162,26.028973 C4.44745946,23.6155135 3.41343243,20.6421081 3.41343243,17.4359189 C3.41343243,9.35148649 9.98951351,2.77540541 18.0739459,2.77540541 C26.1583784,2.77540541 32.7344595,9.35148649 32.7344595,17.4359189 C32.7344595,25.5201081 26.1583784,32.0964324 18.0739459,32.0964324 L18.0824595,32.0964324 L18.0824595,32.0966757 Z M18.0824595,0 C8.45489189,0 0.646540541,7.80908108 0.646540541,17.4361622 C0.646540541,20.7284595 1.56016216,23.814 3.14586486,26.4427297 L0,35.7942162 L9.65335135,32.7001622 C12.1526757,34.0791081 15.0227027,34.8720811 18.0824595,34.8720811 C27.7097838,34.8720811 35.5183784,27.0634865 35.5183784,17.4361622 C35.5181351,7.80908108 27.7097838,0 18.0824595,0 Z" id="path3007" fill="#FEFEFE"></path>
                    <path d="M18.0824595,2.77540541 C9.99802703,2.77540541 3.42194595,9.35148649 3.42194595,17.4359189 C3.42194595,20.6421081 4.45621622,23.6155135 6.21437838,26.028973 L4.38713514,31.4759189 L10.0238108,29.6749459 C12.3421622,31.2090811 15.1088108,32.0966757 18.090973,32.0966757 C26.1754054,32.0966757 32.7514865,25.5203514 32.7514865,17.4361622 C32.7514865,9.35172973 26.1754054,2.77564865 18.090973,2.77564865 L18.0824595,2.77564865 L18.0824595,2.77540541 Z" id="path3009" fill="#25D366"></path>
                    <path d="M13.9884324,10.2222973 C13.7040811,9.54145946 13.4885676,9.51567568 13.0577838,9.49816216 C12.9111081,9.48964865 12.7476486,9.48113514 12.5664324,9.48113514 C12.006,9.48113514 11.420027,9.64483784 11.0665946,10.0067838 C10.6358108,10.4463243 9.567,11.4718378 9.567,13.5749189 C9.567,15.678 11.1011351,17.712 11.3078919,17.9965946 C11.5234054,18.2807027 14.2988108,22.6590811 18.6081081,24.4435135 C21.978,25.8397297 22.977973,25.7103243 23.7449189,25.5466216 C24.8652973,25.3053243 26.2702703,24.4775676 26.6237027,23.4780811 C26.9771351,22.4781081 26.9771351,21.6248108 26.8735135,21.4438378 C26.7701351,21.2628649 26.4855405,21.1597297 26.0547568,20.943973 C25.623973,20.7284595 23.5294054,19.6941892 23.1329189,19.5562703 C22.7449459,19.4098378 22.3744865,19.4616486 22.0816216,19.8754054 C21.6678649,20.4528649 21.2628649,21.0390811 20.9352162,21.3922703 C20.6766486,21.6681081 20.2541351,21.7026486 19.9009459,21.555973 C19.4268649,21.357973 18.0997297,20.8921622 16.461973,19.4356216 C15.1949189,18.3067297 14.3331081,16.902 14.0832973,16.4797297 C13.8332432,16.0489459 14.0575135,15.7986486 14.2555135,15.5661081 C14.471027,15.2987838 14.6777838,15.1092973 14.8932973,14.8592432 C15.1088108,14.6094324 15.2294595,14.480027 15.3673784,14.1869189 C15.5140541,13.9025676 15.4104324,13.6094595 15.3070541,13.3939459 C15.2036757,13.1784324 14.3418649,11.0753514 13.9884324,10.2222973 Z" id="path3011" fill="#FEFEFE"></path>
                </g>
            </g>
        </g>
    </g>
</svg>